<mxfile host="app.diagrams.net" agent="Mozilla/5.0 (Macintosh; Intel Mac OS X 10_15_7) AppleWebKit/537.36 (KHTML, like Gecko) Chrome/133.0.0.0 Safari/537.36" version="27.0.3">
  <diagram name="Page-1" id="R_v_Icdnun6IP747seoA">
    <mxGraphModel dx="2374" dy="2354" grid="1" gridSize="10" guides="1" tooltips="1" connect="1" arrows="1" fold="1" page="1" pageScale="1" pageWidth="850" pageHeight="1100" math="1" shadow="0">
      <root>
        <mxCell id="0" />
        <mxCell id="1" parent="0" />
        <mxCell id="Z2C5RkajM_3W-rklwGNb-1" value="" style="shape=image;verticalLabelPosition=bottom;labelBackgroundColor=default;verticalAlign=top;aspect=fixed;imageAspect=0;image=data:image/png,iVBORw0KGgoAAAANSUhEUgAAAX0AAAGICAYAAACtJjD7AAAAAXNSR0IArs4c6QAAIABJREFUeF7sfQlclOX2/xlEEGQEFwRUdtTrhqh0k2FxBtxyqdRCXCpt0Vxyz+1Watc07eaSS5qVG6Ci1q2UxNRRgUG7mICpCSibsogoAqIgMv//Gef1hwTM9s7M+86c9/Ph0zLP+zznfM+ZLw/nnOc8AqCHECAECAFCwGwQEJiNpqQoIUAIEAKEABDpkxMQAoQAIWBGCBDpm5GxSVVCgBAgBIj0yQcIAUKAEDAjBIj0zcjYpqaqXC5/5r8CgUBuavqRPoSAPhAg0tcHqjSn3hG4fPmy1f379+3kcrmlXC5/GBgYWEHEr3fYaQETQIBI3wSMaE4q4O4+KSmpRXJy8ujo6OgRGRkZrSdMmHDp9ddf3xQUFHRTIBDUmhMepCshoCkCRPqaIkbjjYrAuXPnWv3+++8jFy1a9LG9vX0HS0tLlKdizJgxO8aMGbM5ODj4Du34jWoiWpzjCBDpc9xAJN7/IZCcnGz7zTffvHvgwIElNjY2bS0tLZsBAMbycXdfMGrUqC8nTJiw68UXXywn4ifPIQQaRoBInzyD8wjI5XKLxMRE5z179syIiYmZbGdn5wgASPjMg8RfAwC3Ro8evXns2LGRIpGomIif86YlAY2AAJG+EUCnJdVHQCqVYvzGY8mSJcsyMjKG29jYtAIAi0ZmeII7/vDw8K9Gjhz5rVgsvk/Erz7WNNI8ECDSNw87807LOgnbgdHR0XMzMjJetLGxaQHw7BR5Q74rt7a2rrG2tr45YsSIda+++mp0QEBAKSV3eWd+EliPCBDp6xFcmlo7BDCcI5PJ2u3evfvtyMjI91q1atXJ8mnGFv21UZ+1trZG0sdFHwPAzeHDh68bNmzYAbFYXEI7fu1sQW+ZHgJE+qZnU15rhISfkJDQac+ePe/HxMRMtbGxsbe0tMRwTpO+amtrC8pKHuaQFsb484YPH75m2LBh0WKx+AERP69dg4RnCQEifZaApGl0R0AZv/dZsmTJioyMjKE2NjZ2qnb3SPRWVlYM4ddN7DI7/swRI0b856WXXjookUgqdJeSZiAE+I0AkT6/7Wcy0kul0hZXrlwR7927d35GRobIxsbGRqlcoz6KhI87/EYeZsdfDQDp8+bN+5e3t/dvEonkkcmARooQAlogQKSvBWj0CnsIYML2+PHjtunp6cMWLVq0pk78HhdpKn4Pyvh9U8LUJf4rc+fOXdSxY8ezw4YNq2JPA5qJEOAXAkT6/LKXSUmLhH/69Gn76OjoqTExMe/Z2Ni4KRO2bBB+/VBPtVwuvzB//vxP/Pz8zvr7+2Oylx5CwOwQINI3O5NzQ2El4Tvt27fvvQMHDswQCoVt6xy4atQv6yRsNVEEd/z4g6Ge37/++uv3i4qK0sPDw7Gunx5CwKwQINI3K3NzQ1nmhO2CBQs+y8jIGGNjY4OB+SYrdBpJ2GqikIL4LSwsKrt37x45Y8aMVSEhIbeohl8TCGmsKSBApG8KVuSJDsrdfctLly4NiI6Onl0nYdtk/b2KhK3a2ltaWsotLS2xT0+xj4/P7ilTpqwPCwu7TaWcakNIA00AASJ9EzAiH1RgDlzt2rVrSlRU1MxWrVq10UP8vlEo8BdHnTp+rOEvHDp06KZBgwbtoHYNfPAgkpEtBIj02UKS5mkUAWaHv2/fvgkHDhyYb2Nj41GH8PG9Bv0Qq3PUqNBRiTzW8VtYPNeuB0M9GM/PHTp06IoBAwYcHjJkyAOVE9EAQsAEECDSNwEjcl0FPHS1e/fubj/++OO3QqGwJwA02UOHhfi9AhIkeiT8Rh4kfqzguTp9+vTl3t7ex6iGn+ueRPKxgQCRPhso0hxNIoA7/ZMnT7YfOHBglKOjY4C1tXWjpM9i/L7+Kd2GZGSIP23mzJmzPT09f5dIJBj6oYcQMFkEiPRN1rTcUiw5Obn5li1bxu7cuXO1o6Ojs7W1dd1++Ao/ZCucUyd+rw4ISPwPfXx8fpo6deqSkpKSm1TKqQ5sNIavCBDp89VyPJNbGddvO3fu3P9cvXp1rKOjI8ZdnvmftbW1QE/xe1VIKUo55XJ5aefOnQ9OnTp1dWhoaC5V9KiCjT7nKwJE+ny1HA/lxtj+pUuXAmfNmvW9tbV1J0dHR0W7ZOWBK518EeP3uMOvl7BVFyXm8FbF4MGDPx8xYsTmoKCgcnVfpnGEAJ8Q0OmLxidFSVbjI4C7/fPnzwu3b98+YefOnUusra2d3d3dm1laWjJ+qJU/qkjYqqs4c9du9tChQ9dLJJLIgQMHltGOX134aBxfENDqS8YX5UhO7iHAEP/UqVM/SU1NfcPW1rath4cHU0+psT9qGL9XBcizUs4hQ4asHDly5H6RSPRQ1Uv0OSHAJwQ0/pLxSTmSlZsIKOP7HefMmbMqNTV1jKOjYwtHR8cmT+U2pAnLhM8swRB/xsyZMydOnjw5hVo1cNOPSCrtECDS1w43ektHBDC+n5qaKpozZ87XANAZ4/uOjo44q1o+2cCBKx0leu51JP5HnTt3PjRlypQVoaGhNyjMwya8NJcxEVDrC2ZMAWlt00UgNjbW+uDBg2/s3Lnz3wDg6OjoaKGK+FmK36sDKvboKfPx8dk7bdq0T6hVgzqQ0Rg+IECkzwcrmaiMdco4P0tJSRkLAEIPDw+s5mnQL/UUzmkMXSaxWzRkyJBPxowZs69fv34Pacdvos5oRmoR6ZuRsbmoqvIidI/g4OCvACAUz2g1RPwGJvy68X08oZs5ffr0eR06dJDSrVtc9CKSSRMEiPQ1QYvG6gWBmJiYZrdu3Rowd+7czQDgDQCW3bt3f5bY1XP8XpVOzOUr56dNmzbv3XffvUiJXVWQ0edcRoBIn8vWMSPZ4uLiWkZHR4/ZvXv3xwDgbmtra+nl5YUHrgRaHrhiCz3m4NbDzp07H5kyZcr80NDQAiJ+tuCleQyNAJG+oRGn9RpEgGm/vHv37jd37dr1LwBwEgqFFp07d8bxxvZT5oL1+507d943ZcqUz0JDQ/Mpvk/OzEcEjP1l4iNmJLOeEEDiT0hIcPjggw82pKSkhGN838XFBfCHI8SP5F+GrRqGDBmyRSKRVOgJCpqWENAbAkT6eoOWJtYGAST+TZs2vThr1qxNANAb4/scJP6b06dPXxQQEPBDjx498LJ1eggB3iBApM8bU5mPoFi/f+3atVBlYtcNAJp16dIF7OzsuLLjx1u3UqdNmzazT58+F/z9/fEyFnoIAV4gQKTPCzOZn5BSqbTFrl273tm9e/cnANAOwzscI/4qb2/vhFmzZk0NCgrKovi++fkoXzUm0uer5cxA7nPnzrWaNm3asosXL74HAC2FQqFAmditr73B/bimpkZeU1NTOWzYsK9Gjx79n4CAgHtE/GbglCagosG/LCaAGalgIASUFT3uEolkJwD0BwCrOsSPSVWdWjJrq0ZNTQ3gDwBgq4aiESNGrAoPD//e39+/Uts56T1CwFAIEOkbCmlaRysE8ODWzZs3+82bNw8bs3VH4lcmdpkySq3bMmsjUHV1NdTWItcrnmcdOefMmTPNwcEhga5a1AZVeseQCBDpGxJtWksrBC5fvmy1du3aQbt37/4IAPxwh98zeFytx2vRFiVxU6yqCi/gvHr1ZSR63N3XIfy6xF/VtWvXI7NmzfpALBYXUZhHKzPTSwZCQK9fFAPpQMuYOALYn+fEiRPCqKioObt27ZrZZehy6y4vLcMdfvPqwguWd+Km6DXMg0SPO/wmHkX9/vDhw1cMHjz4+0GDBt03cZOQejxGgEifx8YzF9Gx937z5s3bP3ny5I0tx+7NrHR+pS2GeQBAEdqpLrwAd+Km6GW3Xyd+r4r0kfjzR4wY8dlbb731PdXvm4t38k9PIn3+2cysJMZk7oULF2zKy8t9Y7L83s8rc3gJBICkz8TyFXiUp24XlKd8wyo2ahL+szAP9uORy+V/zps3b/I777yTSv15WDUHTcYSAkT6LAFJ07CPAEP4lwssep8r9lySV+YQAgIQKuP3f/Pd8tTtwBbx10vYqqsc7varunTpcnDmzJlzw8LC7lJ8X13oaJyhECDSNxTStI5GCCDhJyYm2mWVCiUx132nyQECsVa//g6//qQlcVNAmdjVaD1msBrxe1XzKso4hw8fvmbw4MG7Bg4cWEbErwoy+tyQCBDpGxJtWkstBLBMs02bNu3Ol/gMTyp0nwkA3bD5mroVOtoSv4bhnMZ0Yco4b86dO3dxnz59fqA2DWqZnQYZCAEifQMBTcuohwAmbS0sLDwTCtzfSipyHycAcJUDWKpL+LhKncSueosCKMoxlQeu1H6niYF4WremsrLywt69e98Qi8V4sfqz4n42FqA5CAFtESDS1xY5eo9VBDCcc/z4cVtra+u+Mdd7T82tcBgMAK2x2ZomhM8IpUl8X8v4faP6V1VVQVVVFe74K7t16xbz8ccfLwoODr5DYR5WXYYm0xIBIn0tgaPX2EUAb866Xd1+0IEbfksBoJeyJPPZlYnarKaK+Js4cKXNcop3lISP/8rcuHV36dKlcz08PA7S/bpaw0ovsogAkT6LYNJUmiOgvBjdPiG/09DEIo8FIIcedQhf8wnrvdFYfJ+FhO3fZKusrKwfImLi+9f27NnzlkQioft1dbYoTaArAkT6uiJI72uNgDJ+75pY4DZJVuQxVgDgpWn8Xp3F6xM/y/F7BdFjiKiRnICijPMf//jHnsWLFy+lMk51LEZj9IkAkb4+0aW5G0WAIfwDmb4zciscJgGAg7Ick3WfrJvY1Qfh4w6/iYcJ89z56KOPPuzatWuMRCJ5RK5BCBgLAda/YMZShNblBwKYsP3111+tSmpd+smKPN7Oq3AYDgCO+iJ8BhUk/vxfJjXUME1r4OrE71XNgcSPvZj/2rt375Ti4uL/UTdOVZDR5/pCgEhfX8jSvH9DQNkfv2Xewzb/jMnwXQIAAQBgo+rAFVtQ3ruwBe4lb2VlOg0IH9dj2kDjbVunPvnkkymhoaH5VM3DiiloEg0RINLXEDAarj0Cv/32m31ySecRiUXuHwCALwC00KYcU3sJAHQlfhXx+ybDPGVlZVi///Dzzz+f36tXr90U5tHFkvSutggQ6WuLHL2nNgJ4wtbZ2bl9QqHrW7ICj8kA4IFtkQ1N+IzAGOZ5lP8/teVnBiLhq4jfNzin8j0kfEVSt3fv3ns//fTThdSCWWMT0AssIECkzwKINEXjCGBJ5tmzZ733Z/pOv1nhMFYO0F7f8Xt17KEp8WsYznkmAhI+7vCV/+MJADwAgH2nTp1a1L9//zJ1ZKUxhACbCBDps4kmzfUMAYzfX7lypfkfWdX+B677zQOAQXUaphnd73Cnj8SvzqMt4T98+BDwp85BrSoAyPz888/niUSiM9STRx30aQzbCBj9y8e2QjSf8RFgErZJtz0Gygo95gNAvzoN0zjjc+rE9xs4cKUWwPUIH/vulPv6+p4dP378prCwsLN0yYpaMNIgPSDAmS+gHnSjKY2AgDJ+3yah0H2orMBtqQDAWx8HrthSrTHi1zZhy8T9lfF7FBMJ/36vXr2OrF27dmW7du1yiPDZsh7Now0CRPraoEbvNIhAcnJy84cPH3pGp/ecmffA4VWQg4u2DdMMCXH9+L4uCduyMkWYvm4Mv2jixIlfv/nmmzsDAwMLqdumIS1LazWEAJE++YXOCDDhnJsPHHyTbnu8k1vu8KryhK1ODdN0FkyDCRjiZzF+j4exMidOnLh90qRJkQEBAfeoLl8Dg9BQvSFApK83aM1j4uXLl1v4+/vb5z5oPfxogeh9gUBRf483XPGG8NFSmNjNOjRO0SVT06de/B5ff4yEv2bNmgV4GIu6a2qKKI3XJwJE+vpE18TnxnLMkydPOipvuHpfeeDKylj197rCXZGXBJn7wzWaBsM59eL3Fb6+vqfGjx+/vlevXv+jA1gawUmDDYAAkb4BQDbFJTBh6+jo6JpU7BEhK/AYDwDeypYKvPapwsT1UChbp9JkdRK2TAwfa/DvTJgwITIiImKzhYXFLYlEgiEeeggBTiHA6y8op5A0I2EwYVteXu5+8Ibf+7kVDniloSOXK3Q0NY0q4lceuGLIHv+JhF84ceLEL8LDw6PCwsIwfk/XI2oKPI03CAJE+gaB2XQWkUqlLfIq7XsmFXq9k1dhPwJAUaFjwdeQTmOWwTAPhnvqPw0cuKrG+P3atWs39ujR45BYLL5PCVvT8XdT1IRI3xStqgedsELnxIkTrf5X0iU4qchthlwOASAAO1MkfCV8ciXxP/uONED4j3x9fX+dMGHCem9v72RK2OrB8WhK1hEg0mcdUtObkLnSMD6/08uyQo8ZAIorDZkOmSbrQxV5SQrirxO/R12ZS1HKunfvHvPvf/97dXl5eR71xzc9vzdVjUz2C2uqBjOkXri7T0pKavH48WOP/Zm9R+RV2L8BAF3YvMPWkPposZYcQzy/bx1Y/9U7EydO3Dpu3LjNZ86cubt8+XKK32sBLr1iHASI9I2DO+dXZRqmXcypfiEx3+P9vAcOQwCgNR9O2LIMrjzr5GeQdWIVTou7/PKJEyeumDRp0jaRSKTopkYPIcAnBIj0+WQtA8mKhH/8+HHb4ift/fZl+M0SAOBW196E4/eqkEXir806serumjVrlvTs2fOARCKpUPUSfU4IcBEBIn0uWsWIMiHhnz9/XijNdhmSWOQ2A+TgBwIQ8u2ELcsQygUANd0q9yaPDPKcWFBQkEMxfJYRpukMhgCRvsGg5v5Cyh469rLbXiOSCt3mAEAv5Q1XKLy5+0qtq93922O9Uz55/PhxzMCBA8uoNJP7Pk0S/h0Bc/8ik08oEZBKpZa1tbXuh7L6vpn7wOE1AYBXnR74hNPTeH61q13phXCvlEVCofA8XYJCbsFHBIj0+Wg1lmXGE7Z/5lt2OVfsMf1mhf1YZYdMkztwxQJsSPyPRS45R/q3u7FUIpFk0MlbFlClKQyKAJG+QeHm3mKxsbHWKRXd+yYWuC8SAITUSdhyT1huSITE/0DknLM7oH3WSrFYfJuInxuGISnUQ4BIXz2cTG4Uxu/j4+PbJeS7jpAVeWCHzJ7mcOCKJUPWghzuRHRO+c7ZumRjWFgYEj9zcQpLS9A0hIB+ECDS1w+unJ5V2SGzdcz13u/lVbaexpcbrjgEKnMqtyTCO3XxP5xr9vv7+1dySD4ShRBoFAEifTNyDuaGq9zy1n7n77hNzC1vPdxUG6YZwKxI/LWudqV/RPikLW7ZsmU8JXYNgDotoTMCRPo6Q8iPCZgDV7er2w+KueE3Vw7QT9n/HhO29GiHABJ/lVvL+6fGdk5dHBIScpni+9oBSW8ZDgEifcNhbbSVnnXIvNdlkKzQbR7Ioa8Z9c/RN+5I/BUi55w9L7TJ+NegQYPu63tBmp8Q0AUBIn1d0OPBu9gh89SpUy7n7/hMkBW6vQsArlR/z7rhsOFaicgl5/NQt8Jv+/fvX8b6CjQhIcASAkT6LAHJxWmeHbjK6Tspr9zhTQDoaMb9c/RtoloQwK0Iz7R5He3u/peuStQ33DS/tggQ6WuLHIffw9398ePHbQqrnPqcL3b7ILeitQQA2hDh691oT1yF9/8X7nlxslgsTqf4vt7xpgW0QIBIXwvQuPyKskKnrazYY0RSgcc7ANCnzoXlZG/9G++Rq/D+D+GeFxeJxeJbVL+vf8BpBc0QIBLQDC9Oj8Ydfnx8fNuEAvdxskI3PHCF/XOsqFmaQc2m6Lkf4Jyz8cW2mRsHDhxYYtDVaTFCQAUCRPom4iLKA1eeMTf8puVVOGD/HCczvPCEK9bExO7dAJfclX3sLm+ju3O5YhaSAxEg0ue5H2A459dff7W6U+vkJSv0eu/mAwe80hBvuKKGaca1LRJ/RrhX2of9vCzjevToUW1ccWh1QuApAkT6PPYEJPzExES7rPst+x/I9JsGTxumIeGjXcm2xrWt4sQuAFx93eviFJuHmb/TxSvGNQitTqTPax9gWiokFXkOlhW5L1ReeNJCucPntW4mJLzixq1OdqWy1z0vTpVIJFjRQ43ZTMjAfFSFdoM8tBrG7zt27Nj27M0OYbJCj/fkAAF04IqzhnzaqkFY+u3rnimficXiIiJ+ztrKLAQj0ueZmZHwnZycOuzL9J10s8JhkvLAFVXocNuOiooekXPON/0cri0fMmTIA26LS9KZMgJE+jyyLt5wdfmWdbdzJR3fyCtv/bqS8JtR/J4XRsT4fnGgc/bc3sKrP1BFDy9sZpJCEunzwKxMwvbGXdu+B2/0mSUXwAC60pAHhvu7iLVygL/GeaXN6mh39wy1auClDXkvNJE+x01Yt0NmYr7bHIEA/KglMseN1rR4NSCA/33Y++w7AwYMuMprTUh4XiJApM9RsyHZX7lypXlhYaHL73e8Xkos9MAOmd2VCVvqgc9Ru6kpVpWrXemBcK+U+WKxuIQSu2qiRsNYQYBInxUY2Z9EKpW2yK2w73Ou2GtmXrl9GAC0pRO27ONspBkxsXs/0Dn3c/826duoB7+RrGCmyxLpc8zwdW64euFAlt9skMMgapjGMSOxIw4mdm8HOuV83LvVlb2U2GUHVJpFNQJE+qoxMtgIbJgmk8nanbnZ4SVZ4bMOmbZ04MpgJjD0QorEbrj3xdk2lZlSOrFraPjNcz0ifY7YHQn/9OnTbc7d9ngtsdBjoQCgkxzA0hjlmNVFF56hUl349N+r6vw//G9rp35g5dwPrJzwql16tEQAwzxPAODMBPc/J0e80vMmxfe1RJJeUxsBIn21odLfwNjYWOuWLVt67b/uOz633GG0BUBnYxA+kn156jfAEL26Ggt7T1EMtVP+U933aJwCAST+B27C0pgx7n98Ehoamk/ET56hTwSI9PWJrhpzx8XFtSx+0t4vscBzZl6F/UBjdMjUluwbUg9/AdBfAGoY/vkhCuLvZFe6dlKPaxvpjl2N8aMXNECASF8DsNgeihU6typbD9yf2Xs2ALwIAC0N2SGTTbKvjw2SP+38NfIYJP58kVP2x36trkZTYlcj7GiwBggQ6WsAFltDlReeOCYVew6XFbhjbKQnAGCHTIO1RK5I/UYRytHnQ8SvMbo1AJAV4Jz7qaj9jUMSieSRxjPQC4SACgSI9A3sIpiwTUxMdD5zq9O4pEJ3PHCFVxo2N2TC1hCEz8BaUFAA7mOioK2P2MBI83I5RQ9+AUD2a56pk2wepSdRRQ8v7chpoYn0DWie5ORk28u3rH2wYVpueevXLAA6Gjpha0jCZ6AtLy8H8BoPXV5aZkC0ebuUoqJHDiBd1Cd+QXBw8J8CgQBr+ukhBFhBgEifFRibnoQ5cFX8xCXkQEavWfKn8ftWhr7S0BiE/xwyXuPAJWi+ARDn/RJI/I9chfd/HOeThsRfSBU9vLcpZxQg0tezKf6vYVrXAbIC13nKhK21clmD4Y9J25K4qXrWtunpacevEfxykENZgEvOV2Huhf+hih6NsKPBTSBgMNLR1gpImnzd5SgTti5Jtz3flBW6hwNAlzoJW20h0eq9gj3+Wr3H9kvp6emKA10BH0jZntoU58OwTkmgc+6XEveCr4n4TdHEhteJs6SPZJ+UlNTi/PnzHr169bobFhZWzKfYJnPD1f7MXm/kVbTGLXYHYzVMKzk+VeMDV/pyRdztI/Ej6VNyVy2Ukfjzx/qkzbF+cO2/lNhVCzMaxLedvrIlQfvo6OiJu3bteufx48dVkyZN2vLOO+8cCgoKus918scbrtILrLzPFrlOufnAAW+4cjYW4Rs9jt+A82FFT5VtF9rtq09N2KpBNs4r5Z3xI/yuc93/1VeLRhoDAc7t9HGH3K5dO5+lS5d+lJGRIamoqGhbVVWF2BRNmjTpv35+flG9e/e+xNUaZjxwlVfZpndMpu8CAMCWyPaGrL+v70QYx6/bS8cYTtbQmhcuXKDdvvrGwMRupatd6eEIn7SPQkJCqEeP+tjRyHoIcIb0mXBOcnJy8L59+2alp6cPsLGxaVFVVdWsuLgYxcY/c/GwSubkyZP/8+abb/5XLBY/4FK8XyaT2UhzO4iTitznAIAIALBDpsEOXDXk3VyJ5deXjXb7GnNRLcih3E1Y+tXEblc3iESiuxrPQC8QAoY8ENQU2kyFy9WrV8csXrz441atWrlYWlpaMe8g6St3+7jjwVOLRW+99dbKqVOn7hWJRA+NbUmU//Tp0y3P3fYYmVjksQDk0EN54MqoN1xxMbRT11a029fIc9H38QcvV18+yLtkj7+/f6VGM9BgQoALpK8kzLbR0dEfxMTETLGxsXG0tLR8jiyR8JW7fcZoSPzXJ02atCo8PDzGmH1KMP+w55cLnc7f9gnPfWD/NgB4G/qEbWOezHXSp0oejTlIcWIXADICnXJWDnDL/4ELmx6NtaAXjIqAUcM7GL93cXHpuGfPnkUxMTHjhEJhoweW6u32ETQkfgz1LImIiDgxePDgSkOGep7dcPXYue+BG74zlDdcofzNuPDLFAHiamiH8XgM8eTn51NsXzMKYHrwXw/3Tp3d3bnmlL+//2PNpqDR5oyA0Ugfd8jx8fH/WLhw4ZqMjAyM3zfZYbKB3T46Pzp77uTJk1e9+eabByUSSYUhjMmEc2RFHiOSijwWA8A/AADDUUbDs77eXN/lK34pEelr665yAUCNHODsfN/TM8Vi8TVDbni0FZre4wYCBicpZoecmZkZvHfv3lkZGRmhNjY2TPy+UXmsra2hrKysfpiH2fVkT5o0af277767NzAwsEKfXwDlLyunxHy34YlF7njCtjOXdveMW/GB9KlmXycSUPbgv79nfOe0ldSqQScszeplg5K+codsv2/fvvcjIyNntWrVCuP3KsMhSPj4g092djZUVj7LX6Hj44N1zMV+fn6btm3btkVfJxeZE7Yx1/sszXtgjydsW3P1/lqulmrW/XYxpN9l6HJqxqYd7aD/lweYBSYwAAAgAElEQVQ65+zwb5Px74EDB5bpc8OjnYj0FtcQMBjpKwnfKTo6ekZMTMw0GxsbB2XCtkkZbG1twdISr4p9+iDhI/HXe5gdf/GkSZOWTZkyJZLtBBdeaXhH7twrqdBzel6FwysA4MBVwkds+LTTJ9LXiRYwsXs70Cnn476tr+0bMmTIA51mo5dNHgGDkL5UKkXW9lmyZMnHGRkZw21sbISq6teR6K2srJ4jfMYamNStV82DHzHEnzNp0qQVbFX1YDjnxIkTwoKqdoMPXvebKQfoo7zhyqjlmKo8kw+kjzpg2Sa2Y6BePKos2uTnT0AAWeFeaR+7trz7X64eXNRJQ3qZNQT0TvpI+H/++eeLUVFRX2VkZHRXxu+bPLCEhI87/KaeemEeZihD/LfeeuuthWPHjv1Jl3JO/OtEJpM5nsnrMF522wMrdDy4GL9vCCcudNVUx0uJ9NVBSa0xtSCAqxE+ae9OeMn3d2rVoBZmZjlIb6TPVLhcunRp9KJFi5bY29t7Wz6N0zS5Zt34fVMWaSTMU3fHf3Py5MnLx48f/9+BAweWa/IlUMpu3axZsy6JBW6TZIXuEXIAR74QPoJApG+W3+fqTi1Lfx3XOe3DoqKiG9SczSx9QKXSeiF9JM34+Ph2e/fuffvAgQOzbG1tndSJ36tL+GqEeXAIJncLJk+evH7ChAl7wsLC7qqb5EpISBDW1NQEHbjuNyuvwj7Q0BeWq7SaGgP4QPpMySbF9NUwqHpDnvboEZYeCvdM+UgikdxU7zUaZU4IsE76SsJ33rt372w8YdvUgau6QNdP2KprhCbCPDiFIsk1efLkrREREetVJbmYv05uVbQevv9G7yUA0BUAsGyIdZzU1U+XcXw5nEWkr4uV//Yu+vwDkXPO2n4O11T6PKsr02S8QIBVMsMOk8qE7ZKMjIxhNjY2eEJVZfy+sYStOgg2EeZhQj34JcCqnjUTJkzYOWjQoPsNzYsJ25MnTzqev+vzpqzAfZIFQGdD31+rjr6ajOE66WM8H58RG5nKW020o7FNIFArB8gNcsn5sq/9tZ2qNjuEpHkhwBrpX7582erkyZODoqOjF2RkZLxgY2Njow7hq0rYqmOOkpISKCoqamwo06jqHlb1zJw5c1v9Y+vKA1dt4wvdx58rcFskB3BSJbs6chl7DJdr9ZnQDlXu6MVLmB49ueFeKTO7uzz5jVo16AVnXk7KCuljDXuLFi3EI0eO/EooFLopO2Q2ucPXNH7fGLqYG8YfJBH8aeRhvgRZGzdu/GDgwIGnevToUY1kn5SUZF1VVeV98IZfeF6Fw3g5PKvQ4aVB6wrN5bg+xfP17l5MJduFD/3OvhcSEnJZk2IGvUtHCxgNAVZIH/vIR0VFvXb48OE1lpaWTJULKtXg/GwRPoaFLCz+r1w+IyMDFJdvN/wwbZn/XLdu3ew+ffr8r1mzZsKcMuE/ZUUek/MqHPDCEzw/gCeETebh6m6fQjsGcTH0+apOwtLt430ufRYcHHxH3WIGg0hHixgFAVZIH0M7Z86cCVm1atU2AHBvrLSxqQNXmmiPRI+EX/+pqKhQ3L/aBOnjR9V+fn7JGzZsWJJb7tAj5kbvtwCgV50LTzQRhfNjubjbZ9ovIHgUz9e7CyHxF4mcspcHOGXvpoNbeseb8wuwQvrKS8DdVq5cuenq1auDAeBv9fjqHLhSBy0mnNPYWDWIX7H76TJ0eXqXl5Zh7xz8ywQrdDh9wlYdbBrFJPUbKE/9RpcpWH0XfzEj8VPVDquwNjVZDQjgmsgpZ6Gf8MpJXQ4sGkxiWkhvCLBC+iidcrc/btWqVRsA4LmqHbbCOaoIn0Gpifi+okyky9DltV1eWoZtmZl2yKzhoDdL6TgxVyp5KJavoyG1fx3vn7gQ0TltTkebu8kSiQT/mx4zRIA1ssMa94SEhM6ffvrpnqtXr/ZldvtsEX79+L0qWzUS35djjxesGFH26jHq/bWqdGDzcy704qGKHTYtqvFcir9wAeDEa56pi98a2fsKxfc1xtAkXmCN9BENqVRq99dff0347LPPPsO2w7a2tgJLS0ud1sD4Pe7w6yZs1UW+LvErSwPrF4TrJJu6cnBlnDGTugzhIxYUxzeaRyh68LsJS3e97pnysVgsvk/EbzRbGG1hVklP2W/edfLkyfutrKz6qtNrpynNG0vYqosWE99Xxo7R4VnVV105uDTOGDv+uonbOn9pcQkWc5IFDysWdGpZ+slY75QYQ902Z04Ac11X1kkQT+XGxsbOPHr0KLYxwJ7zWoVQ1I3fqwJY4D0eXILmE+HXAcrQxE+JW1VeatDPmfr9rEDn7GWDvEt+8vf3f3YrkUElocWMggDrpK/sX+O9cePG9enp6YO0uTuWLcJvN+QbsHLuZxRgub6oIYgfd/gY1qFKHc55w1PiF0BaoFPuIm/BeSl15OScjfQmEOukj5LiYa3Lly+/vH79+nUA0F6TlsSaJmwbQ4YIXz2f0Uecn8hePeyNPAqJ/zHI4eRYzz9mWVddzyLiN7JFDLS8Xkgfd/tJSUmtf/zxx+lHjx6dq7xLFlVqdD1d4/f18RL6TQVh7ykGgpHfy7C1669L9pg47/LSMqZSit8Ama70ilbMcjn8vKhv/PyQkJBG+5iYLgTmp5leSB9hVDYxc1q3bt03qsI8bIVziPh1c2A8vVtdeAGqCi8oLmHR5KlbjklkrwlyRh+Lid37rsL7i9/xzYyk+L7R7aF3AfRG+gzx79ixY9iGDRu+EggEbviLoP5uX1+EzyBHYR7tfQj/AsAnP+HLZ5NYK3MkuKtXnnd4Lm/C/D/tV6U3jYAAXrV4Q+Scu8TP7vIvdGLXCBYw4JJ6JX3UQyqVOhw9evSD2NjYD+tfKM5W/F4VXh3e0mzXqmo++pwQMEEE8ITu5f7OuR+P6lkRh11oTVBHUskQdeu4uz916pTnpk2btqWnp4cAQHMLCws8tKXVgSttrIa707ZDuNN7Rhsd6B1CQM8IyAUANSCH1LFeKdM7CksvUqsGPSNupOn1vtNX7vYtMzIyxBs2bPjOwsKio5WV1d/CPPrWnxK7+kaY5jcBBJ5W9ACcfs0zdd5bI3tfpR78JmDVeioYhPRxzXPnzrX64Ycflp44cWIqANgb4q+M+uYi4jc9ByaNWEcAif+hm7B0/2i3C0vDwsJuU6sG1jE26oQGI33mwvTNmzd/kZmZ+TqGeYxB/JTYNaq/0eL8QACJ/34nu9J1Y9ySvxo4cGAZET8/DKeOlAYjfRRGWcbZc86cOfuxw7Gyh71BZUA5iPjVcQ0aY+YIYClnvsg599OQjnn7g4KCGr2Szsxx4p36Bidc7Lt/7ty54Vu2bMG++52McXkJJXZ556cksHEQqBEA5AS45KwWd8qPFolED40jBq3KJgIGJ31lYrfF8ePHF8TFxWEZJ95La3A5iPjZdCOay4QRwB3/tbHeaVM7tbybRBU9/Le0wclWGeYRyGQyx40bN67NzMwcZ6z4PiV2+e/ApIFBEKiSA5wd1/ninAkv9fmLKnoMgrneFjEK6TPEf/bs2Z6bN2/ecf36dWyF2cwYO34ifr35Fk1sOgg8V9EzcODAItNRzfw0MRrpI9TJycnN09LSQrds2fKtXC7voG3vfV3MVltbq0jstujwgi7T0LuEgKkjgGGesgCn3E+G+BR/Rz16+Gtuo5I+whYXF9dSKpXOOn78+DwAaKuE0iByIeFXVz89be419TJ/rUiSEwKGQQCJP1PklP35YJ+SA0T8hgGd7VUMQq6qhMb+PMePH18ZFxf3DgBYGyLMU1NTA/jDPLjT7zBylypR6XNCwJwRwDAPEn/6656pU2wepSdRD37+uQMnSB8PbiUkJHTetGnTN5mZmSIAsNQn8dcnfMZsrf1nQOt+0/lnRZKYEDAcAopWDXKAXyM8/lgw8eW+Nyixazjw2ViJE6SPikilUssbN24Eb9myZQcAeCgTu2zo+NwcGM7BsE5jDxE/65DThKaHgOLyFVe7e1Hju1z+LCgoKI9O7PLHyJwhfYQsNjbWOj8//72tW7cuU8b3WZOvbvxelXkwzEOJXVUo0edmjgASf7mr3b3t4V6pn0okkgozx4M36rNGqmxorAzzOMTGxs6Ji4ubxVZjtsbCOU3JTMTPhkVpDhNHoFYAUCRyzv40uOOtqMDAwAra8XPf4pwifYRL2ZitXWxs7JLjx4+/p7x4RWs5tSF8lIMSu9x3XpKQEwg8kQPkBTlnL+3fPvtHiUTyiBNSkRCNIqA1meoTUyT+kydPtj958uTquLi4sQBgo01iV1X8XpUORPyqEKLPCQEFAk8A4MpY77QZ1pXXZFTRw22v4CTpK3f8eOOW6/bt2zdkZmYO06RVA8bvcYffVMJWXbNQYlddpGicGSPAXL4S/5pn6mzbR+l/EfFz1xs4S/oM8Uul0he2bdu2LTMzs6c6rRo0Sdiqaxbbnu+Cc+BcdYfTOELAHBFQtGpwtSs9PKHr5cVBQUH55ggCH3TmNOkjgNiqISUlZfjWrVs3A4BzUz34tY3fN2YonA9DRPhPn4gYsHMN4INNSUZCwFgIYC10hcg5599i1/wt1IrZWGZoel3Okz6KL5PJbK5cuRK+devWVUriR7mfk10fhF9ZWfkcen4f5nHTiiQVIcAdBOQggOui9rlzA5xuHKNWzNwxDCMJL0hfueO3PXTo0Pzjx49jnIW5Y1chv64J2/pmqaqqAvyp/+BOH3f89BAChECjCGCYBxO7Sa97/DnTpurqZYrvc8tbeEP6CFt8fHzr2NjYaXFxcQvx8pXa2lpBdXU1qzo0RviM2ZxF8yi+zy0fJmm4hwASP3YyjB/nfWnq+OG9sqh+nztGYpUw9a2WspSzzYkTJxbFxsa+W1NTgzt+C7bWxXBO3SZsjc1LxM8W4jSPCSOAxF/VqeX9L9/sfmWdSCS6a8K68ko1XpE+IovEf+LEiVbHjx9fcfToUezK2VKbGv66VkKirx+/V2VFSuyqQog+JwQAif+uq939NeFeFzfRwS1ueATvSJ8h/tOnT3eMjY2dffTo0Sm63LOrKpzTmJkUFT1jY+QOXsE4hJc4csMFSQoTRwBbNWSJnLKm93fKOUWJXeNbm7dkJZfLLU6ePOl4/PjxD44cOTIVANpoGurRlvAfPnwIDx8+VBB+3/eOMVbkLZbGd0OSwIQRkAsAauQAMlH77EWDO5f84e/v/9iE9eW8arwmKibU89tvv80/cuTIB5o0aFM3fl/fgkrCV/zBgT8OXsHyvu8dw2qF5rTj57y/k4DGQ6AaBCAL97744RvD+lygxK7xDMFr0mdCPTKZzPHHH3+cExsbO1MZ4280uVv3wJUmsDNxf2WiV0H4APDI19e3+OV5+zNlBe4vspFf0EQmGksI8AgBxfcFAI6Fe6bNf2Okbw5dvmIc6/Ge9Bnij4+Pb3fkyJGPjhw58gYAODS069YmYYvz43tlZWV1LYQOXDZhwoSfJ06ceOTJkyfXz932micrcn8FAGxpx28cZ6ZVOY8Afm8euApLD4d7piwXi8W5RPyGt5lJkH5d4v/555+Xx8bGTqrfmVPH+D1jGWaHXzZ+/PgtERERm2xtbcvs7e2f3Llzx3t/pu9XNyscBsj1fN2j4d2EViQEWEMAWzU8cG15P3KMR/KKgQMHFrE2M02kFgImQ/pK4rdISEjw+PLLL1dkZGSMkcvlLXDXzSLhY+z+1po1az564YUXfn7xxRfxtiA5xiexR1BZWVnoukuSrwDAR9OkslrWokGEgGkggMR/X+SUvSm4480NQUFBpRTjN5xhTYr0mR3/2bNnPTZs2LDh2rVrYZWVlbY1NTUa64nhnDoHtXCHX+Pr6/vHG2+8saB79+7nGio9w+se7zxxmR1zw+9jiu8bzolpJV4igMR/W+SUvXywT8lef3//5xtd8VIlfgitMRnyQa2YmJhmbdu27fTTTz999MMPP0Qo4+xqndxtIGGLKlf16tXr2OrVqz8SCATXmqo1lkqlnZJue34iK3QfR8TPB28hGY2IAP7lnBnhlTbD6uG109SjxzCWMEnSr7Pj73T48OFFP/zwAyZ37VSFXOolbJn4fen48eMj33jjjf+EhITcVPVnKP7CcXFxcY/Pd10jK3QfCQBWlNg1jDPTKrxDQFHD38nu/skIn9RZISEhmaq+X7zTkIMCmyzpMzF+mUzWbv/+/Qt//PFHvG8Xif9vbZlxbL36e/xfirjj+PHjv54wYcLnYrH4gboOiQfHpFJpn0NZfbblVjj4qXP5Cwd9g0QiBAyBwNPLV4T3tr7VPf3f/fv3f65MzhACmNsaJk36DPGfPHmydXp6esSqVavmAIBHfRJugPCrfH19kydMmLC5Z8+ecWKx+L66hM84EMb3bWxsJAdu+H12s8LBl4jf3L5apK8GCGCrhqL+LjnrRY5ZX0skEiyQoEdPCJg86TO44UUsjx49Cl29evUnV69e7QUA1rjrLysrE9TU4ClxxaPYdfj6+p5dtWrVh61atUrX5ci4VCptcbOyzfADmb7rAKCTqvCSnmxM0xICfEBAkdgNcMmZL+mU/yPduqU/k5kN6SOEuPu2s7PreujQodkxMTGjysrKhModOBPOeThx4sSD48aNW1tcXJzBRmJJKpXa3XrQeur+zN4LQQDtiPj158w0M68ReJpDE8CNsV5p87s5P/5Vlw0Xr5HQs/BmRfqIJSZaO3bs2HbXrl2vAcDLUVFR/eHpYao748eP/0mZsL3F1klB7A90+vTptkm3PT6UFXq8r0tHUD37Ak1PCBgbASR+3PGnjfVKmWf9MCOejY2XsZXi2vpmR/qKGM5TIra2tLRsX1NTMywqKsrHz88v2dfX90xwcHChpvF7VUbF9RISEjzPFritO1fgNoxO7KpCjD43YwQUFT2uwtLT4zr/ObOgoOC6oYn/8uXLVidPnmyBf2kEBARUsbUB5IpNzZL0GfCxyiYpKcnawsKi+cOHD6vFYnG1vgwslUrxrwn/mBt+W/MqHDCn0IxKObnyNSA5OIaAojmbq7D0xDifS4uDg4Ovsr0Ra0xfzMNFRUWNio6OHurr63vn888/P2ZpaXkuMDAQq/fwrxDeP2ZN+oa2HuYUWrZsOeSLlJAvqFWDodGn9XiGgOKeXZFz7q4gl5yPg4OD7+ib+DH/Fh0d/VpUVNS/AKCtMipQNHHixF1jx47dFRYWdlvfMhjCRkT6hkC5zhq4k7j1oPV7+6/3Xg4ArWm3b2AD0HJ8QgCJv1Tkkr02wDF7syZnZTRRUhnutV+6dOm81NTUdwHAsc55Htzdl06ePHljRETEFlPoE0Skr4l3sDQ2Pj6+dUK+26zEAre5IIBWRPwsAUvTmCICSLr54T4pH/u0fniA7VJODPFu2bKl2969e+ddunRpFIDi+/isZUvz5s3BxsbmiaWl5Z0xY8Z8O2bMmK8M8VeHPg1JpK9PdBuZG3cWiYmJLmdudVqRVOiOvYF0vtzdCGrQkoSAoRB44mpXem2sd+r7t2/flrGV2MWE7alTp3wXLVq0CgACAUDRlVeplAAJXygUMmd4auVyORL/tlGjRuFfHSV8DfUQ6RvKbeutwxB/1LWe3+ZV2A+ixK6RDEHL8gUBJP6z4V4ps8Ri8RVdk6pxcXEtDx48OGbfvn3/ksvleEofrzvFR8GJNjY2ip86z7NeXKNGjdo4bty4zQEBAff4SPxE+kZ0eSR+qVQqOpjVZ11ehUM/5Z+VZBMj2oSW5iwCSLpVAc45v4raZ80Ti8V43SKzC9dI6HPnzrX6/vvv34+MjMS2LO3rf+8aIHxmfob474waNWrLhAkTNvCxVxARjEbuwv5g/BPzwo2aITE3fDcCgFudE8LsL0YzEgL8RgBJt1LknLMryCV3haaxdTyY6ejo6Ll06dI5qamp2PqcuVb1GQ+2atUKLC2xurrRR0H8crm8+LXXXlvz6quv7tSmN5cxzUCkb0z0lWtjRU9epUNETKbf58rKAbV6/3NAdBKBEDA0ApjYLRvrlfpxe6uinUOGDHmgjgB4TiYtLS14yZIlXwJAN2XvrWfhHGXCVhXh193xoxx3R48evX7kyJFbBw0adF8dObgwhkifC1b4/1mk3377zf73ks4fJhW5T1PuQIj4OWIbEoNzCCDhZkR4pX3U0e7uf5u61AglT05Ott2+fXt4VFTUAgDoWj9/pkzYaqqkYsdvaWlZ9Prrr6+WSCTfDBs2rErTSYwxnkjfGKg3sOb/9ejx+pes0A179Ci6gHJEPBKDEOASAooePa5295IjfC69V1tbe7Ux4sfy6L17974dGRm5SHng6rn7NJqI36vU19LSUm5ra4uy3Jw7d+5cHx+fWIlE8kjli0YeQKRiZAPUXR6J/9SpU16HsvttyquwD1NWFJCNOGQjEoUzCCgSu652pccifNIWhoSEXK9f0ZOQkNBhwYIFH6WlpWFZtH39C5R0IXxra2vAH9zt47pyuTx7zpw5c/r27RvH9e6gRCic8eGngmCyqV27dj3XXZJsFgC8KP+/UjKOSUriEAJGRwCJ/0GgU/Z3wZ1urW3duvWd7t27P75y5UpzqVTaLzIycklaWlooVmDWJ3w1EraNKleH8JkxKMcTuVx+Ze7cudMcHBzOs3WWQB8IE+nrA1Ud50Tif2jrIzl4o8/XIAcv6sGvI6D0uikjoGzVkLMy0CnnFwsLizupqal9Fy5cuAMAXOtUwym4Tsv4/TP8bG1tG0v2ohyPu3btenTmzJkfhIaG5mtbUqpvYxHp6xthLefH5FNcpuM7SUVu2KMHS8sosasllvSaySPwBACujvVJOXn2v1stoqKixMoKnec62eoSzsEyTiR8FQ8Sf3mXLl1+nj9//r+CgoLyuEj8RPqqzGikzzG+f/LkyTbnS3xmJxW6z6DmbEYyBC3LBwQUHTkBoOLUkpZI9NjWBIvtn/GbLoTfQDinMUyYw1uVXbt2PTh//vyPAgMDC7hG/ET6HHZppqInJqvPxrxye7zpC4+Kk804bDMSzWgIKAi39EZ87R87huJfxc+qdFiO36tSkCH+B8OHD98ybNiwNRKJpFTVS4b8nAjEkGhrsRZ2AYyPj/fbl9FrY16FA17tSJevaIEjvWIWCCjaMmSd/AyyTqxSNEzDHb6KE7aNAtNE/F4VmAzxl4wYMeKbkSNHfsmllsxE+qrMx4HP8TThrcrWQ/dn9v5K2aqB2clwQDoSgRDgFAIM8Qvu/7FNK8Hwl4SVlZXWvyyUiz4j/uHDhy8bM2ZMFFf69BDpa+UWhn8JuwIWP27/2oHrfqvlAE71S9AMLxGtSAhwG4HM/eFQkZekkZBqJmzVnVNRwy8QCG6NHDly5eDBg/dy4fAWkb665uPAuISEBOGZW65LkgrdpgBAG4rvc8AoJAKnEdCE+DVI2Kqts4WFhdzKygqrizKnT5++0Nvb+1dVbSPUnlzLgUT6WgJnrNfOnj3rkpDv9rGsyP2tOodOjCUOrUsIcBoB3Okj8at69EH4+FeDMp+AoZ4abAP0xRdfvBEaGpql630AqvRp6nMifV3QM8K7mNg9deqU56Gcfp/mlduPph49RjACLckrBFQRvw4J20ZxqEP4zBhFW2gfH59fpk6dujg0NDTXWKWcRPq8ct+nwiLxS6XSPoey+mzLrXDwo4oeHhqRRDYoAoWJ66FQtu65NVmO3yvmtrCwUOzu8Z8NPEj8DwcPHrz21VdfXf/iiy+WG4P4ifQN6nrsLRYbG2t9R94hPCaz92oAcKETu+xhSzOZJgJ1iV8f4Rwkeqz6UfEg8ecPHTp09YABA3apex+Aqkk1+ZxIXxO0ODQWD26dP39eKM1xmpFY6LGwThdBDklJohAC3EIA4/uPb//BdMhkTbgGwjlNzY3x/YKhQ4d+OWzYsO+DgoLKWRNEjYmI9NUAiatDkPjj4+Od4wvcPk0qdMf2sXj8nGzKVYORXJxA4Mb2HqzKoSHh49qK+wAA4NbMmTNn+Pr6GrQdMxEEq+Y3/GQY309ISPCISu+18maF/csAgF2hyK6GNwWtyBMEHuX/D/J/mcSKtBjOaSR+r2p+ph3zHzNnzpzz9ttvnzdURQ+RgyrT8OBzbMXs4uLiHZ3e84ubFQ4vyes1m+KBCiQiIWBQBO5d2AL3krdqvaaKhK268yougvH29o59//33ZxmqHTORvrrm4fg43PHv+SVVdDCr9yYA6EkVPRw3GIlndAS0JX41E7bq6odhngc+Pj47P/jgg+XBwcH31H1R23FE+toix8H3kpOTm18utBhQ5/KV5+4D5aDIJBIhYFQEMMyD4R51Hy3i96qmZnr0lGEpZ1hY2NZBgwbdV/WSLp8T6euCHgfflUqlLc4Ve72ZWOD2MQB0oFJODhqJROIUAuoSvx4In8FBQfxyubx46NChqwYPHrxVn60aiPQ55X7sCIPN2ZLvd52eVOC+mC5fYQdTmsV0EVAnsatDwlZd4Jgdf97MmTPf8vT0TNQX8RPpq2sSHo1TlnK225fRa2lehQM2Z2MuhuaRFiQqIWA4BBojfpbj96oUYnr0/Pnll1++KRaLr+ijoodIX5UZePo5Ev+pU6e8DmX33ZZX4RBCt27x1JAktsEQqJ/Y1WM4pymdFBes+/j4xMyaNWuRPq5bJNI3mEsZfiEs5Xxs+w+/fdd7fQcAvSi+b3gb0Ir8QoAhfiMRft0Y/4OhQ4duGj169Ep/f/9KNlEk0mcTTQ7OhRU9v11v+1pikccakENHIn4OGolE4hQCxb++C49vXzS2TFjKeXvo0KFrBw0atEMikVSwJRCRPltIcngemUxmI73ZYWZSgTtW9NjRiV0OG4tE4wQC+bv7GVsOplVD8fTp06d5e3sfYSuxS6RvbNMaaP2zZ8867kvvtSrvgcM4atVgINBpGd4iUF14Ae7EYQ2EUR9FqwZvb++E6dOnvycWi6+z0YUep3QAACAASURBVIqZSN+oNjXc4nhiNzEx0TkqvecXdPmK4XCnlfiLQHnqdihP+cbYCjCXr2Bi9yM2ErtE+sY2qYHX3/tratcD6b7fAkCAslWDgSWg5QgB/iDAEeLH+H75kCFDtrzyyitr+vfvX6YLgkT6uqDHw3exoudhiy4BB7N6Y7epbvC0ORs9hAAh0AgCJXFToKrwgrHxqcUTu4MGDVokFov3Dxs2rEpbgYj0tUWOx+9JpVLLpELvANlt1x0A0JkqenhsTBLdIAhwgPjltbW1tdXV1Znz58+fJRQKT4aHhz/RRnkifW1QM4F3MMa/6mDuB0n5bitAAK2ooscEjEoq6A0BYyd2a2pqoKamRpHY7dKly7GZM2dOGjhwYIk2ChPpa4OaibwjlUrbxdzoMzevwn4mAAiJ+E3EsKSGXhAwFvErCZ/RCYm/dMSIEatHjx69XZvL1Yn09eIe/JgUWzWcPn3aKSarz5d55fZjAABvdSaf4If5SEojIGDoxG51dTXU1mIe99kjx348crk8e86cOR/27NnzmEgkeqgJFPQF1wQtExyLYZ7dv6R2O5Tdew/Iobcyvk9+YYK2JpXYQcAQxI9Ejzv8eoRfd7f/GACubNmyBev3L2hSv09fbnb8gNezYKuG4zfavyQrcF0DAF0osctrc5LwBkBAn4ldJHrc4at4cMf/qHPnzofmzZs3Pzg4+I66xE+krwpaM/k8NjbWOqWs2yRZkcdqALAn4jcTw5OaWiOgj1YN9eL3TcnG9N8vGT58+IpRo0Z9r26Yh0hfa5Ob3osnTpxo+0OO/4LcCvv3lcRP/mF6ZiaNWEKA7cSuBoRfN8yDZZuZc+bMeb9v374yf39/DPs0+dCXWhVCZvQ5JnZlMplj5F89VuRV2E8EgJaU2DUjByBVNUaArfh+AwlbdWTB3T5gmMfHx+enWbNmLQgLC7ul6kUifVUImeHnkbGpnfZn+H4NAEOVrRrIT8zQD0hllQgoSFdJ/Fp9R9SM3zcZ5sH6/erq6vsjR45cMnr06N0SieRRUy9oJahKKGgArxHAHX/ULyn++7P8NgNAXyJ+XpuThNcPAgrCL8k8DVWJ85kVNOJTLcI5f9OkqqoKqqqqnl2z+K9//WvBCy+8EN9UmEcjIfWDHc3KRQSwoicuwzEk6bbbOgDoTsTPRSuRTEZCQJFETf91RW36seXNXFxcwMXFRSMuZZHwEQImqVvZrVu3I8uWLZvfVDdOjQQ1EsC0rJEQUBB/ZruBSUXuuOP3oIoeIxmCluUSAopWCLaFP5XFrH7VAuBpC5MuXboI7OzwfiLVj5bx++cmrqysVNTx13mYS1eKPvroo3m+vr4/N1bNQ6Sv2kZmPQJv3dp79R9v55W3/gQE0I6I36zdwdyVR2KtiPBOlXVsee+/u3fvtti1a9cyAGgnFAoFnTt3bpJPVRy4UgtbJHr8pdEA4TMhnlvdunX7ZMWKFYeJ9NWClAY1hIBUKnU4cL3PgpsP7GfRdYvkI2aKwBNXu9J8kVPODvdWZYefPHmSW11dLV+4cOGK1NRUvGLLTigUQmPEz0LCVkH0uMOv9yhyC8oQT2VNTc2lFStWLAwKCvq9R48eDZ7wop2+mXqwJmpjYjcy7oJzzLV+38sBQgGgOZVyaoIgjeUxAoqwiatd6dUIn7RlLVu2PNavX79Hyv43gqSkpNYzZszYevHixVH4vcDYPsb46z4sx+8bIn2U8VG3bt1OvvzyyxsCAgLO9evX72FjJ3SJ9HnsjYYUHXv0RB5NCzxww3cDyMGXEruGRJ/WMhICSKZVIuecC4HOOZ88ePAgsf7lJbgh2rhxY+CcOXO2KVuYWNYlfj0SPrPDx25sZT4+PkeXLVv2GR7UUnWBOpG+kbyJj8tevnzZ6udLdq/IitxWywE8lbt98iE+GpNkVoWAIn4f6Jz9Y//22f8GgOzGyBRbmPz111+D582btwkAOmHeCxO7VlZWjTVMU7X2s88bSNgyoRz8p4LwR48eHTlq1Ki1xcXFBepcrEJfWLXhp4GIQHJysu3xzLZvyIo8cFfRmoif/MIEEUAyvT/WO3W9V+sH20UiUbGqZmZSqbTFnj17Ju/cufMjAHBC4u/evbvW/NpIwrYu4WO8/ubLL7+8d+LEiZsCAgLuqZKRsZPWQpmgoUklNRFITExsr2jVUG4/jm7dUhM0GsYHBBThHDe7+xdFzlmbfdpWHdHkEnKpVGq3e/fuabt27ZqNxG9ra9vMw8NDY45tJGHL4Ie/kB5069YtfsyYMd/06NHjbFBQUKm6hI+TaCwQHyxHMuoXAYxj7oq94nQ4s/t6ABhNiV394k2zGwQBJPyHIuecn4I75H0UFBSUpQmRMhJiifOOHTsidu7ciW3K2zo6OgrwR10NlCdsGxuOMj7w9vb+Yfny5XhB+m1MKKs7N+30NUWKxj+HACZ29/z8Z8+D2T3xxG4wET85CE8RYE6z3gt0yvm+v1PWVrFYnKsNmTL6nzt3rtW0adOWXbx48W08vIW7fVtbW5XE3wThMzKWjho1auOrr776XWhoaIG2MqoUhKeGJLENgIBUKrVMKvTol1jk8aVAAC8Q8RsAdFqCbQSeCACyX/dJ3eLZqnyXpqGShoTBv4Tj4+OdZ8+evfLixYsRANCiKeJvIn6P0zOEX/jyyy9vGzdu3GZdZSTSZ9uFzGy+p7dutRUlFnhsFQD8g07smpkD8FvdJ65299MD2mctcLUrPaWqO6UmqiLxnzp1qsP8+fO3paSkDLa1tW3u4YGdTJ4PqTcRv39WkllTU1OyfPnyOV27dv2RDRmJ9DWxJI1tEAEsWfu5sP/bt8pbfyxXVi4QVIQAhxFQxMZdhaXScM+UVe3bt/+jsdOruugQExPTrLCw8IVZs2btAICujo6Olo6Ojs+IX434fVW3bt1SXnnllfU9evT4mQ3C/9tvHV0UpHfNG4HffvvN/nCu/5ybFQ7zAEBIRQLm7Q8c1Z4JlZSJnHO+De6Qtyo4OPiePmXFEGhaWlrw7NmzNwJANw8Pj2a2trbYDlmApN/Io0gqe3t7n1i5cuUHBQUFt9Spv1dXD9rpq4sUjWsSAaZVw4Fr/bB+XxHHJOInp+EQAs+6UAY456wTtc/Cy0buGEI+DIEmJiYOmz179lYs5XRxcbFo1qxZQ5tu5pfSozFjxnz78ssvrwsNDcWkMhPqYUVcIn1WYKRJEAGs6Nn7S5p7TLbv1wI5hMqf9uihhxAwNgJyAUCNHOBihFfq545WRccHDx5cyTaZNqUkHmrctGnTtN27d8+3trZu7+joiG2Z6/Iv80sp/5VXXtk2atSo78LCwrAkk1XCp/COsV3RBNdH4l8VkzMgqdAdr1vsTIldEzQyv1R6euBKWBof6JS9cPwwvzRtSx11VRtLObdt2/burl27FrZq1aptq1atFNt9ZYVObU1NTfayZcuWv/DCCzHqXHCurTy009cWOXqvUQTwSLqs2HN0UoE7xjHbEPGTsxgBgac7ZzmUiJxzIgNdcjYXFRXlshkb11QnDIGeOHGiVXR09Hs7d+6c0b59+w7Yn0cul9/r3LlzwieffPKFQCBIZSth25h8RPqaWo7Gq4VAQkKCMOpaj8/yKhwmA0BLiu+rBRsNYgcBJlRyI9A5e13/9tmREomkgp2pdZsFif/06dP2e/bseS06OvpDPK07evTo/a+//jqeEcg2xF8hRPq62ZDebgQBdO49v1xwPXij3zYQQBgd3CJXMRACiusMASArovOl2X3cm53URzmmLrooib/lnj17hjdv3tx+7NixR0tKSgoN9VcIkb4u1qN3m0RAkdiNvdg3JrMP9ugJUIZ5yOfIb/SFgLJhWumvIpfctX3cLfVSf8+G8Ej8SUlJLWpray3z8/MrDUX4KDt9AdmwIM3RVHzfUnbba3RSoduXAIBXCtWvWiD0CAE2EFAQfie70iNjvVI+FIvFOfqofGFDUGPPQaRvbAuYwfp4cCu5pPOExCL3JQDQgRK7ZmB0w6qIhF8a6JyzK6hD3oagoKA8IvzGDUCkb1jnNMvVmKqFwzkvfHizwn4m9eA3SzfQh9LMYabbIufc1WLXWztEItFDfSxkSnMS6ZuSNTmuy5kzZ1z3Zfquu1nhMBIArCi8yHGDcVs8JmGbH+GTsqSNoOBw/ftruS2+8aQj0jce9ma3sqIH/6+pvQ9m9l4HchBRRY/ZuQBbCivi9652908HOWct6er05LI+DzOxJTRX5iHS54olzEQO7EPy1+1m/9yf4bcZAHoBAHMq0UwQIDV1RAAJv9JVWHoowjvts5CQkEyK32uGKJG+ZnjRaBYQQOKPu9Hu9aQC91UA4EqJXRZANf0pmPj9XREmbF1y1wYHB98hwtfc8ET6mmNGb7CAgKKi567P9MRCj4UAYE/xfRZANd0pnp2wDXDO+XxAx5sHg4KCyk1XXf1qRqSvX3xp9kYQwIqehIQE16j0Xp/frLB/lVoxk6s05ioA8MjV7l6ayDnvi7aCW0coYaubrxDp64Yfva0DAooTu0f/6Bpzo+93Ajn4ywEsacevA6Cm9ypzw9Xh19z/+LeFhUWORCKpMT01DasRkb5h8abV6iGA8f0rhZahMTd6rwI5+CoTu+SX5Cm1AHAvwClnm8gpa7NYLC6i+D07TkFfLnZwpFl0QADv2E0p6z5cVuT+BQC4U6sGHcA0jVdxN58hcsn5MsAx67BYLL5PhM+eYYn02cOSZtIBAbxZ6LcbjhMTC9w+BQC8PRp9k/xTB0x5+CqTsL061idlXjenJ6ep/p59K9KXin1MaUYtEMDE7smTJ9sczu43K6/C4X0QPCN+LWajV3iIABJ+tatdqay/U9Yqf0/rs1xricxDTBsUmUjfVCxpInpIpVKHmBt+K/MqHN6mih4TMapqNZSEf//Uax4XpunjMnDVIpjPCCJ987E1LzRVXL7y85+9Dmb3XAcAQdSjhxdm00VIJPyHIqecfcEd8z4NCgq6aYjbo3QRmO/vEunz3YImKP/ly5et/siqefHAdd8vBAB9qZTTBI38VCWs0Lktcsr+5p/trm8NCwu7TQlb/duaSF//GNMKWiCApZy/3Wg3IrHQfSPIoSO1atACRO6+okjYutqV5gU45cxvZ5F/lA5cGc5YRPqGw5pW0hABvFz97C3XabJCt3nKih68dYsefiOAhP/I1a40McInbXXLli3jqULHsAYl0jcs3rSaBghgfD8+Pr7dvkzfuXnl9jMAQEhlnBoAyL2hSPj3A5xzokM65K2h+L1xDESkbxzcaVU1EcBWDQkJCZ3W/BG0BQAGUWJXTeC4N0xB+CKn3G0BTjfW0IEr4xmISN942NPKaiIglUot8yrb9IvJ9P2PAOBFSuyqCRx3hj0BgBvhPqn/drW994tEIinljmjmJwmRvvnZnJcaI/En3fYcLCt0/w8AdKUTu7wwo1wAUNPJrvRi//ZZc2weZv4eHh6OvwDoMSICRPpGBJ+W1gwBmUxmczrPJVxW6PElALQm4tcMPwOPfnqlobD0QLhnyufFxcUZRPgGtkAjyxHpc8MOJIWaCODlKz/kvrAwr8J+GgA4UGJXTeAMOwwJvyTAKWd7cIfcjSEhIcWGXZ5WawoBIn3yD14hoLx8xWFfes9NuRUOr9Pl6pwzXy3I4Y7IJeeLgPZZmyUSySPOSWjmAhHpm7kD8FF9JP7dv6R2P5TV+zsA8KfL1TlhRdzdPxbIIW1s59QVXq0rT4pEooeckIyEeA4BIn1yCF4iEBMT06zapsvL+7N644ndDkT8RjWjon+Oq13pidc9Ly68c+dOJsXvjWqPJhcn0ueubUgyFQhgYvfMTZeXEwsUiV0XatVgFJdRXGkY4JyzR9Q+a7VYLL5F/XOMYge1FyXSVxsqGshFBLA5289/2s5PLPBYBAJoRYldg1kJyV4OArgV6JS9qn/77P104Mpg2Ou0EJG+TvDRy1xA4MSJE06Hc/p9kVfhEE4ndg1iEUX9vRzgr7E+aav7elgepgtPDII7K4sQ6bMCI01iTASwVYNUKu287pLkWwAIoDt29WqNp/X3dqUnAp3zlna0LbkqkUjwTlt6eIIAkT5PDEViNo0Anti9WeEQFHPD71s5gCfF9/XiMUj4pa52pT+Ee6V8LhaLr1P8Xi8463VSIn29wkuTGxKB2NhY64tlPaYkFbktViZ2yb/ZMcDT+D3APZFzzgaxa/7WgICAe0T47IBr6FnoS2FoxGk9vSJw7ty5Vqdynd+VFbivAICWlNjVGW4F4QsAikTO2Z9K3Iui+/fvX6bzrDSB0RAg0jca9LSwvhBITExsH3mt+9q8csWJXRsifq2RVhy4AoC/wn1S/9Pdqeawv79/pdaz0YucQIBInxNmICHYRABP7J4+fdo95obfdzcrHIKpFbNW6CpvuLoXH+FzaXFISEgqXViuFY6ce4lIn3MmIYHYQADv2L1caDHg4PU+eHCrJyV2NUJVDnIoE7nk7n+xXeYXJSUl2XTCViP8OD2YSJ/T5iHhdEEgOTnZ9q/CZpP2X/dbSR051UKSSdjmBzhnfyfulL9VJBIVU8JWLex4M4hInzemIkE1RQCreWxtbUNkRR7bZYXublS/3ySCSPi1AHAr3Dt1rk+byl+pYZqmHseP8UT6/LATSakFAtii4c6dO0GLFi3aVt5+pLtn2NLmlNRtEEjmwJVM5JS9rlPL0pPUElkLh+PJK0T6PDEUiakZAtiFs7i4uMvevXs/TEtLG4Plm33fO2bh4BVMPv88lIoOmW7C0v1jvdOWh4SEYMM03PHTY6II0BfARA1rzmrh6dwrV670+fDDD9cDQF8AsGZ2+KGrH5DPP3WOugeuvv5n28zNYWFhtyl+b/rfHPoCmL6NzUZDLNU8f/688LvvvhsdGRm5SCAQeClv1mIwEDh2CYVek38xG0waURQJ/4kcID3IJXdjX/u/ogYPHlxJhG8ebkGkbx52NnktlbX5Lfft2/deZGTkAgBoX+diFYWf29jYKH6cRfPAOXCuyWPSBOHjgasr47xT53V1rknw9/fH/6bHTBAg0jcTQ5uymhi/d3Jy6rB48eL5qampYwGgXX3Cb9WqFVhaWj6DwUyJH2P1la7C0uPjfC6tsLW1vUqEb8rfjIZ1I9I3P5ubjMbK3b31pUuXQqKioqZdunRpoLLtggUTw2/evLlid1+X8BkAfCJiwM4VOzGbxYOEXxrolPNdUMe8zUFBQXkUzjELu/9NSSJ987Q777WuE78fGxkZOV8gEGA7ZSzJxEfh10j4QqGwSV3NgPiZhO3dQOfczUEdcr8KCgoqJcLn/VdAawWI9LWGjl40FgJ4acrZs2c7RkZGzoiKinoLANoCAMZunvkzE79XJSPu9JH4TfRRJGwB4PJYr7R1zi1u/zRw4MAyInwTtbaaahHpqwkUDeMGAhi/b9u2rfP+/fvnREVFTVa2V8BwzrMdvrqEz2hkosTPHLj6Q+SUu7ib8+NzFL/nhg8bWwoifWNbgNZXGwEk/Nu3b/8zMjJySVpaWhCA4iL0Z/F7nKh+wlbdyU0ssYuEX+5qV/pTuFfKKgDIpCsN1fUE0x9HpG/6NjYJDTGks3Xr1n4LFy78j1wuxwNX2Cf/uYStqvh9U0DY2tqCY//Z0LrfdD7jxfTPuStyztk+oNOtTdQwjc/m1I/sRPr6wZVmZRmB7du328+dO3fd/68vDwcA2zrxe4Gm4Zy6omFVj5WV1bPqng4jd0GLDi+wLL1BpmPi93kip+yvApyyIyUSyR2DrEyL8AoBIn1emct8hd2wYYPb0qVLDwJAn7pJW10I39raGvCn/uM19TLfgEbCrwaA/4V7pazu7vLkdL9+/R5SwpZvZjSMvET6hsGZVtERgYSEBOGCBQt2pKWlvQoAVrjT1zZ+j6I0Rvj4Ge70ccfPk+fZgauxXqmf29nZpVDClieWM5KYRPpGAp6W1QwBbJP8zjvvfJKWlja3efPmNjY2NoKGDlypMyvG71W929p/Bh/i+0j4ZYHOOT/8s931T0tKSm7SDVfqeIB5jyHSN2/780Z7TORu2rTJ/+OPPz4sFApdtLkQpX78XpXyHCd+JPzbIuecLf9sm7kjLCwMb7iilsiqjEqf/99hFsKCEOA6AhjiiYiI2AkAI5gQj7oyI+HjDl/Th6OJ3RoAKBzrlbq+k92978Vi8X2K32tqWfMdTzt987U97zTH3f7s2bOHHj58+HuBQOCorOBR6cNNxe/VAYFDxK8oyXS1K/0zsH3OCkerouNDhgx5oI4ONIYQYBBQ+YUhqAgBLiEgk8naLFu2bMPVq1dfw5yrqusPdSV81J0jiV25AKCmk929P8K9Uj96+PBh/LBhw6q4ZBuShR8IEOnzw04kpRIBPJV79+7df65cuTIKANyVsf0G8VEnYasusEYmftzhVwa65Jzt75j1qVAovEAVOupajsbVR4BIn3yCdwgkJyfbLlmyZOPVq1ffVHbWfM6PNU3YqgsAntgV9p6i7nC2xiHhVwQ45+wd0PHmZ4GBgYWUsGULWvOch0jfPO3Oa62xrfLWrVvFq1evxqSua93YPhvhnPrgWFhYKE7t4iP0m2oo4mdO2OZGeKdu7djyXpRYLC6ihC2vXZcTwhPpc8IMJISmCOBuf/HixV/89ddf7zCVPPogfPyroX5Nf7sh34CVcz9NRdZkvOKErZvd/T8CnHIW9fW0PN+jRw88cUsPIaAzAkT6OkNIExgDAdztb9u27YXPPvssEgA8bW1tm1laWrLqzw0RPqNrh7cu6ENtJHt8HgY6Zx/q3z57vVAovEzxe31Abb5zsvolMV8YSXNjICCTyWz279//xrFjx/5taWnJlHCyIgqGczCs09hj7dwP2g75hpW16kyCF54UBTjl7BzQ6eZWit+zDS/NhwgQ6ZMf8BoBJP61a9fuTE9PH13/9ixtFEOixx1+U4TPzMtifJ+50jA/wjvlozYWBfupHFMb69E76iBApK8OSjSGswhgmGfHjh1hGzZs2IZhHnUPbDWkUN2ErboK60j8DNmXugpLE0Xtc7/t1PLucYlE8kjd9WkcIaApAkT6miJG4zmHACZ1Y2JiZhw5cuQTZa/9xuMyjUjfVPxelcI6JHYVN1x1EpbuHOuZgr+0sonwVaFNn+uKAJG+rgjS+0ZHAHf7MpnM8Ysvvticnp7+sjZ9eVR13VSlpBbEr2ipYFv4U9GMoa3n1tbWxorF4gdUkqkKafpcVwSI9HVFkN7nBALYl2fHjh3d1q9fH21hYdED/1udnJWqhK26ymmR2JWn/7qiNv3Y8uL169cvCA4OjqEqHXXRpnG6IECkrwt69C6nEMAWDcnJye8dOXJkJQC0aYr0tYnfq1JWE+JP2iSRl2SeximxY2bqV1999dYHH3zwF522VYUyfa4rAkT6uiJI73MKAWzItnbt2i/T09MnNFbNo0v8XpWyqhK7SPTpv64AJeEzdflVfn5+J9evX/+uRCIpVLUGfU4I6IIAkb4u6NG7nEMA4/vffffdC+vWrYsRCASd6od59En4DBiNET+Sffqx5fUxY4i/ctKkSavCw8O/pHJNzrmVSQlEpG9S5iRlEIHY2FhrqVT64dGjRxcCgB0T5mErfq8OyvUTuwUJX8KFgwuaehVvvSpct25dxNy5cxMooasOyjRGGwSI9LVBjd7hNAK424+Pj3det27d1vT09JcsLCyssEWDOgeu2FSMadVQEjcFqgovQEFBgeKnkQd3/DV+fn7S9evXv0XN1di0BM1VFwEiffIHk0RAeWir91dfffWdlZVVb23u1NUVGEzs4oOEzzxqEH/F5MmTv5oxY8Yqf3//Sl1loPcJgfoIEOmTT5gsAljNk5KSMubYsWMbAQB786hVxqlvQJogfuaE7p3169ePmzNnzmmq5tG3NcxvfiJ987O5WWkcFxfX8vTp0+FxcXFYxumsS5sGNoHLyMiA8vLyhqZUhHkAIPHMmTNTQkJCMim+zybyNBeRPvmAySOAbRrWrl37SWZm5vS6iV1jK66C+Cv8/Py++/bbb/9FYR5jW8q01ifSNy17kjaNILBjxw6nbdu2bZfL5cPY6MbJBtAVFRWQnp7e2G4fq3ny1q9f/07Hjh3PhIeHY9tleggBnREg0tcZQpqADwhgYvfbb7/t+/XXX+8AgF4A0EydNg361q2srAwyMzMbI/5qPz+/3zZv3jw1MDCwgMI8+raGecxPpG8ediYtAUAqlVr+9ttvkmPHjiHxdzJ2Yrempgbwp7KyErKzs+vbiEnq3p80adLK999//9v+/fuXkSEJAV0RINLXFUF6n1cI4MGtXbt2zcnMzPwQAFobK7FbXV0NtbUYwXn6NEH8GNbJ3rhx4+xZs2Ydo2oeXrkbJ4Ul0uekWUgofSIglUrbbdu27bOMjIw3AKCFIcM8SPS4u69L+E0Qf93ePIe2bt06OyAg4B6FefTpHaY/N5G+6duYNKyHgPLgVuevv/56r0Ag6Guo+D4SPe7wm3oa2PEzYZ7CyZMnL5sxY0Z0v379HhLxk1triwCRvrbI0Xu8RgAbsS1ZsiT0+PHjXwOAh76Jn4nfqwNacXEx4E+dB4m/CgAunTlzZkLI/2vvbEPausI4fi7U0XaVfhntkDJciCzJB5FpJ0TjCxEcQqIkRuq2YvdBXL9NxrrROKIMGRuoRMQbLLLJhA3EVzAk0RHFFxCU4SA6ZsR9WEFnKRirrasm44RccZma3DSJ997871fvued5fs/J33Ofc+5ziorWkeaJhiTuOY0ARB/jImUJuN3uy06n857L5XpICMkICX/cefARfK7zMOEPnrJFCPHV1dW1NjQ0dKvV6udxNxQPTAkCEP2UCDOcPIuA2+2+xrLsA6/X20gIeT3e+f3wBVs+kTgh/Fxu/yUhxDM9PW0sLi7e4PMs3AsCHAGIPsZCShOg+f2+vj6Z1WrtZBhGGBTcbQAABYBJREFUy/d83bPgnbdgGy1w+oawublJ6F5+Qgg329+xWq2fZmdn/1RaWkrLNeACAV4EIPq8cOFmKRKghdl2dnZusyzbFfpwK+1VZvyxpHPCuXL790+kewIHBzStT17k5OQM22y2+/n5+btY0JXiiEysTxD9xPLF00VCwOPxvDY/P69mWZZW5FTFurAbD8Gn4h4SeI5eML3j8/n8Pp+Pllt2tLe3f9LY2IjtmyIZX0IyE6IvpGjAlgslQIW/v7+/1ul0mgkhb/MV/lfJ33OOnyL4XGonWH1zd3d3u6qqiq2vr+8sKCh4hpn+hQ4ZUXYO0Rdl2GB0ogjQipxDQ0M1DoejlRByM5pSDfHI31N/6B59+qZwyhUU/EAg8Li6urpLp9P9oNVqn0LwEzUKpP1ciL604wvveBKgC7tTU1PXJyYm7jocDrqV88Z5pRqi+eAqkgnh+fsT9x/v2jk8PFy3WCxfKRSKX0pKSnYg+JGo4u9nEYDoY2yAQBgBKvwLCwvpHR0dlrW1tY8JIddPE/4E5e9P5vGp6L9QKpXTlZWVj2Qymb2ioiK4mosLBGIlANGPlRzaSZ7A5OTkzZ6enhav10tr9FwJORz8zSRJ8PeysrIczc3NnxUVFT3GV7iSH3JJcRCinxTM6ESMBGipht7eXll3d/d3hJD3ueJs8ViwjZC/pzP8p0aj0WY0Grs1Gs0WBF+MI0iYNkP0hRkXWCUQAqHDVxQsy37v9/vfPTw8vOT3+2P+3dA3BPpP45wFW1pKeUuv17eZTKZHpaWlzwSCAmZIhEDMg1ci/sMNEIhIgB6+4nQ6dWNjY20Mw7xF3wBi+XgrygXb3y0Wi1kmk7nLy8v3IhqHG0CAJwGIPk9guD01CczPz18ZGhr6yG63tzAMc4Ov8J+x/57C5Eon76lUquGmpqa2o6OjFZRYSM1xlgyvIfrJoIw+JEFgdnY2fXR09N74+PgXDMO8Ga3wRxB8Wj1z22Aw2PR6vU2r1f6N7ZiSGC6CdQKiL9jQwDChEaD5/bm5uWsjIyN37Ha7mWGYW5GEP8KCLRX8P41G47cmk+lnfGErtIhL0x6IvjTjCq8SSCCU6vnAbrc/CJVruBSe4z8nf8+ldF4GAoF1s9n8ZWZmphP77xMYMDz6PwQg+hgQIBADAXoAy/r6ekFbW1s7wzBKQsix8EdI59DeDpRK5aJOp/tcrVYv5eXl0Tr5uEAgKQQg+knBjE6kSIDu6vF6vYUdHR1fE0LeI4SkHRwcMGEVMjnXuQXbfblcPtrS0tK6tbX1R01NDd2iiQsEkkYAop801OhIigQWFxfTlpaW8q1W6zf7+/t0H//lU0o2HB+AYjAYfjSZTO2FhYV/4YMrKY4I4fsE0Rd+jGChwAnQGb/H43lnbGzs4crKSgUhJD1UnZOznM7mt3U6XW9tbW2nRqN5gh06Ag+qhM2D6Es4uHAteQTozp6ZmZk3BgYGPhweHr5PCLkVOnrxn1CFzHa5XD5cVlbmg+AnLy7o6f8EIPoYFSAQJwJU+F0u19WNjQ3N4ODgndXV1dsKheJXs9nclZ6e/ltubu5zCH6cYOMxMROA6MeMDg1B4HQC9MzdjIyMq8vLyzdVKtWTkpISOrune/JxgcCFE4DoX3gIYIBUCdCZP2b2Uo2ueP2C6Is3drAcBEAABHgTgOjzRoYGIAACICBeAhB98cYOloMACIAAbwIQfd7I0AAEQAAExEsAoi/e2MFyEAABEOBNAKLPGxkagAAIgIB4CUD0xRs7WA4CIAACvAlA9HkjQwMQAAEQEC8BiL54YwfLQQAEQIA3AYg+b2RoAAIgAALiJQDRF2/sYDkIgAAI8CYA0eeNDA1AAARAQLwEIPrijR0sBwEQAAHeBP4FnfaltPIdg1AAAAAASUVORK5CYII=;rotation=39;" vertex="1" parent="1">
          <mxGeometry x="2510.893102303321" y="610" width="381" height="392" as="geometry" />
        </mxCell>
        <mxCell id="Z2C5RkajM_3W-rklwGNb-3" value="&lt;font style=&quot;color: light-dark(rgb(255, 0, 0), rgb(255, 0, 0));&quot;&gt;current&lt;/font&gt;" style="text;html=1;align=center;verticalAlign=middle;whiteSpace=wrap;rounded=0;fontColor=light-dark(#000000,#EDEDED);fontSize=111;" vertex="1" parent="1">
          <mxGeometry x="2735.003102303321" y="790" width="480" height="30" as="geometry" />
        </mxCell>
        <mxCell id="Z2C5RkajM_3W-rklwGNb-4" value="next" style="text;html=1;align=center;verticalAlign=middle;whiteSpace=wrap;rounded=0;fontColor=light-dark(#FF0000,#FF0000);fontSize=111;" vertex="1" parent="1">
          <mxGeometry x="2070.003102303321" y="283" width="480" height="30" as="geometry" />
        </mxCell>
        <mxCell id="Z2C5RkajM_3W-rklwGNb-5" value="" style="endArrow=none;html=1;rounded=0;strokeWidth=15;fontColor=light-dark(#FF0000,#FF0000);strokeColor=light-dark(#00FF00,#00FF00);" edge="1" parent="1">
          <mxGeometry width="50" height="50" relative="1" as="geometry">
            <mxPoint x="2610" y="630" as="sourcePoint" />
            <mxPoint x="2710.0031023033207" y="600" as="targetPoint" />
          </mxGeometry>
        </mxCell>
        <mxCell id="Z2C5RkajM_3W-rklwGNb-6" value="&lt;font style=&quot;color: light-dark(rgb(0, 255, 0), rgb(0, 255, 0));&quot;&gt;θ&lt;/font&gt;" style="text;html=1;align=center;verticalAlign=middle;whiteSpace=wrap;rounded=0;fontColor=light-dark(#FF0000,#FF0000);fontSize=111;" vertex="1" parent="1">
          <mxGeometry x="2590.003102303321" y="500" width="100" height="30" as="geometry" />
        </mxCell>
        <mxCell id="Z2C5RkajM_3W-rklwGNb-22" value="previous" style="text;html=1;align=center;verticalAlign=middle;whiteSpace=wrap;rounded=0;fontColor=light-dark(#FF0000,#FF0000);fontSize=111;" vertex="1" parent="1">
          <mxGeometry x="2740.003102303321" y="1300" width="480" height="30" as="geometry" />
        </mxCell>
        <mxCell id="Z2C5RkajM_3W-rklwGNb-38" value="" style="endArrow=classic;html=1;rounded=0;strokeWidth=15;strokeColor=light-dark(#00FF00,#00FF00);" edge="1" parent="1">
          <mxGeometry width="50" height="50" relative="1" as="geometry">
            <mxPoint x="2700" y="820" as="sourcePoint" />
            <mxPoint x="2360" y="60" as="targetPoint" />
          </mxGeometry>
        </mxCell>
        <mxCell id="Z2C5RkajM_3W-rklwGNb-36" value="" style="endArrow=classic;html=1;rounded=0;strokeWidth=15;strokeColor=light-dark(#FFFF00,#FFFF00);" edge="1" parent="1">
          <mxGeometry width="50" height="50" relative="1" as="geometry">
            <mxPoint x="2700" y="1330" as="sourcePoint" />
            <mxPoint x="2710" y="40" as="targetPoint" />
          </mxGeometry>
        </mxCell>
        <mxCell id="Z2C5RkajM_3W-rklwGNb-18" value="" style="ellipse;whiteSpace=wrap;html=1;strokeColor=light-dark(#000000,#FFFFFF);fillColor=light-dark(#FF0000,#FF0000);" vertex="1" parent="1">
          <mxGeometry x="2442.003102303321" y="273" width="50" height="50" as="geometry" />
        </mxCell>
        <mxCell id="Z2C5RkajM_3W-rklwGNb-19" value="" style="ellipse;whiteSpace=wrap;html=1;strokeColor=light-dark(#000000,#FFFFFF);fillColor=light-dark(#FF0000,#FF0000);" vertex="1" parent="1">
          <mxGeometry x="2674.393102303321" y="1300" width="50" height="50" as="geometry" />
        </mxCell>
        <mxCell id="Z2C5RkajM_3W-rklwGNb-9" value="" style="ellipse;whiteSpace=wrap;html=1;strokeColor=light-dark(#000000,#FFFFFF);fillColor=light-dark(#FF0000,#FF0000);" vertex="1" parent="1">
          <mxGeometry x="2678.393102303321" y="790" width="50" height="50" as="geometry" />
        </mxCell>
        <mxCell id="Z2C5RkajM_3W-rklwGNb-43" value="&lt;font style=&quot;&quot;&gt;m1&lt;/font&gt;" style="text;html=1;align=center;verticalAlign=middle;whiteSpace=wrap;rounded=0;fontColor=light-dark(#FFFF00,#FFFF00);fontSize=111;labelBackgroundColor=none;" vertex="1" parent="1">
          <mxGeometry x="2590.003102303321" y="120" width="480" height="30" as="geometry" />
        </mxCell>
        <mxCell id="Z2C5RkajM_3W-rklwGNb-44" value="&lt;font style=&quot;&quot;&gt;m2&lt;/font&gt;" style="text;html=1;align=center;verticalAlign=middle;whiteSpace=wrap;rounded=0;fontColor=light-dark(#00FF00,#00FF00);fontSize=111;labelBackgroundColor=none;" vertex="1" parent="1">
          <mxGeometry x="2012.003102303321" y="130" width="480" height="30" as="geometry" />
        </mxCell>
      </root>
    </mxGraphModel>
  </diagram>
</mxfile>
